<mxfile host="app.diagrams.net" modified="2021-06-15T03:34:52.614Z" agent="5.0 (Macintosh; Intel Mac OS X 10_15_5) AppleWebKit/537.36 (KHTML, like Gecko) Chrome/91.0.4472.101 Safari/537.36" etag="79ilFpZ6sAHx5X4CzWt6" version="14.7.8" type="github">
  <diagram id="pf3LvVhbqTyqLWrwy_AJ" name="Page-1">
    <mxGraphModel dx="1464" dy="1163" grid="1" gridSize="10" guides="1" tooltips="1" connect="1" arrows="1" fold="1" page="1" pageScale="1" pageWidth="827" pageHeight="1169" math="0" shadow="0">
      <root>
        <mxCell id="0" />
        <mxCell id="1" parent="0" />
        <mxCell id="E7Y4T8NCLb86qOGVT-1q-1" value="AA" style="rounded=0;whiteSpace=wrap;html=1;" vertex="1" parent="1">
          <mxGeometry x="230" y="220" width="120" height="60" as="geometry" />
        </mxCell>
      </root>
    </mxGraphModel>
  </diagram>
</mxfile>
